<svg width="49" height="51" viewBox="0 0 49 51" fill="none" xmlns="http://www.w3.org/2000/svg">
<path d="M4.02789 41.7055C4.02789 44.9279 6.17172 47.5499 8.8097 47.5499C9.39419 47.5386 9.97025 47.4084 10.5028 47.1673C11.0353 46.9261 11.5132 46.5791 11.9073 46.1473C12.1997 45.8418 12.6014 45.6651 13.0241 45.6559C13.4469 45.6466 13.8559 45.8057 14.1614 46.0981C14.4668 46.3905 14.6435 46.7923 14.6528 47.215C14.662 47.6377 14.5029 48.0468 14.2105 48.3522C13.5199 49.0963 12.6847 49.6917 11.7561 50.1019C10.8274 50.5121 9.82487 50.7285 8.8097 50.7378C4.41572 50.7378 0.840019 46.6865 0.840019 41.7055C0.840019 36.7244 4.41572 32.6732 8.8097 32.6732C9.82525 32.6832 10.828 32.9004 11.7567 33.3116C12.6854 33.7227 13.5203 34.319 14.2105 35.0641C14.3553 35.2153 14.4689 35.3936 14.5447 35.5887C14.6206 35.7838 14.6573 35.992 14.6528 36.2013C14.6482 36.4106 14.6025 36.617 14.5181 36.8086C14.4338 37.0003 14.3126 37.1734 14.1614 37.3182C14.0101 37.463 13.8319 37.5765 13.6367 37.6524C13.4416 37.7283 13.2334 37.765 13.0241 37.7604C12.8148 37.7559 12.6085 37.7101 12.4168 37.6258C12.2252 37.5415 12.052 37.4203 11.9073 37.269C11.5137 36.8363 11.036 36.4882 10.5034 36.2461C9.97087 36.0041 9.39458 35.873 8.8097 35.8611C6.17172 35.8611 4.02789 38.4804 4.02789 41.7055ZM25.546 39.907C22.6637 39.0755 21.9863 38.6611 22.0925 37.8057C22.1072 37.5369 22.1839 37.2752 22.3166 37.0411C22.4494 36.8069 22.6345 36.6067 22.8576 36.4561C24.3426 35.4493 27.5491 35.9726 28.5533 36.233C28.7574 36.2919 28.9712 36.3094 29.1821 36.2845C29.393 36.2596 29.5969 36.1928 29.7816 36.088C29.9664 35.9832 30.1283 35.8425 30.258 35.6742C30.3876 35.506 30.4823 35.3135 30.5364 35.1081C30.5906 34.9027 30.6032 34.6886 30.5735 34.4783C30.5437 34.2679 30.4722 34.0657 30.3632 33.8834C30.2542 33.7011 30.1098 33.5424 29.9386 33.4167C29.7674 33.291 29.5728 33.2008 29.3662 33.1514C28.8349 33.0106 24.0292 31.8231 21.0777 33.8102C20.4781 34.2159 19.9748 34.7484 19.6035 35.3699C19.2321 35.9914 19.0017 36.6869 18.9286 37.4072C18.453 41.1768 22.1881 42.2554 24.6588 42.97C27.8785 43.8998 28.5852 44.386 28.4337 45.5628C28.4193 45.8447 28.3398 46.1195 28.2015 46.3656C28.0633 46.6116 27.87 46.8224 27.6368 46.9814C26.1491 47.9723 22.9931 47.4171 22.0102 47.1461C21.8034 47.0696 21.5831 47.0368 21.363 47.0497C21.143 47.0627 20.928 47.1212 20.7317 47.2214C20.5354 47.3217 20.362 47.4616 20.2225 47.6323C20.0831 47.803 19.9805 48.0007 19.9213 48.2131C19.8621 48.4254 19.8477 48.6477 19.8788 48.866C19.9099 49.0842 19.986 49.2936 20.1021 49.4809C20.2183 49.6683 20.372 49.8295 20.5537 49.9543C20.7353 50.0792 20.9409 50.1651 21.1574 50.2065C22.4292 50.5457 23.7384 50.7242 25.0546 50.7378C26.513 50.7378 28.1229 50.4854 29.4007 49.638C30.0165 49.2272 30.5338 48.6852 30.9154 48.0509C31.2971 47.4166 31.5337 46.7058 31.6083 45.9693C32.1423 41.8091 28.1814 40.6641 25.546 39.9043V39.907ZM42.5481 39.907C39.6657 39.0755 38.9856 38.6611 39.0945 37.8057C39.1098 37.5371 39.1867 37.2756 39.3194 37.0415C39.4521 36.8075 39.637 36.6072 39.8596 36.4561C41.3473 35.4493 44.5484 35.97 45.5553 36.233C45.9623 36.3362 46.3936 36.2747 46.7555 36.0618C47.1175 35.8489 47.3807 35.5017 47.4882 35.0958C47.5956 34.6899 47.5385 34.2579 47.3293 33.8938C47.1201 33.5298 46.7757 33.2629 46.3708 33.1514C45.8395 33.0079 41.0312 31.8231 38.0797 33.8102C37.4808 34.2165 36.9783 34.7491 36.6074 35.3705C36.2365 35.992 36.0064 36.6872 35.9332 37.4072C35.455 41.1768 39.1901 42.2554 41.6634 42.97C44.8832 43.8998 45.5872 44.386 45.4357 45.5628C45.4221 45.8449 45.343 46.1199 45.2046 46.3662C45.0663 46.6124 44.8726 46.823 44.6388 46.9814C43.1484 47.9723 39.9951 47.4171 39.0095 47.1461C38.6167 47.071 38.21 47.1463 37.8702 47.3571C37.5303 47.5678 37.2821 47.8986 37.1747 48.2839C37.0674 48.6691 37.1088 49.0806 37.2907 49.4368C37.4726 49.7929 37.7817 50.0676 38.1568 50.2065C39.4295 50.5456 40.7396 50.7241 42.0566 50.7378C43.5151 50.7378 45.1223 50.4854 46.4027 49.638C47.0185 49.2272 47.5358 48.6852 47.9174 48.0509C48.2991 47.4166 48.5357 46.7058 48.6103 45.9693C49.1443 41.8091 45.1807 40.6641 42.5481 39.9043V39.907ZM42.7573 18.8591H29.4744C29.0517 18.8591 28.6463 18.6911 28.3473 18.3922C28.0484 18.0933 27.8805 17.6879 27.8805 17.2651V3.98231H3.97122C3.83031 3.98231 3.69517 4.03829 3.59553 4.13793C3.49589 4.23757 3.43991 4.37271 3.43991 4.51362V23.6409C3.43991 24.0636 3.27198 24.469 2.97305 24.768C2.67413 25.0669 2.26871 25.2348 1.84596 25.2348C1.42322 25.2348 1.01779 25.0669 0.71887 24.768C0.419947 24.469 0.252014 24.0636 0.252014 23.6409V4.51362C0.252014 3.52723 0.643855 2.58124 1.34134 1.88376C2.03883 1.18628 2.98483 0.794434 3.97122 0.794434H29.4744C29.897 0.794806 30.3022 0.962982 30.6008 1.26199L45.4777 16.1387C45.7767 16.4374 45.9449 16.8425 45.9452 17.2651V23.6409C45.9452 24.0636 45.7773 24.469 45.4784 24.768C45.1794 25.0669 44.774 25.2348 44.3513 25.2348C43.9285 25.2348 43.5231 25.0669 43.2242 24.768C42.9253 24.469 42.7573 24.0636 42.7573 23.6409V18.8591ZM40.4992 15.6712L31.0684 6.23507V15.6712H40.4992Z" fill="white"/>
</svg>
