<svg width="57" height="49" viewBox="0 0 57 49" fill="none" xmlns="http://www.w3.org/2000/svg">
<path d="M26.0333 32.8999C26.0333 33.3102 25.8703 33.7036 25.5802 33.9937C25.2901 34.2838 24.8966 34.4468 24.4864 34.4468H21.9083V47.3374C21.9083 47.7477 21.7453 48.1411 21.4552 48.4312C21.1651 48.7213 20.7716 48.8843 20.3614 48.8843C19.9511 48.8843 19.5577 48.7213 19.2676 48.4312C18.9775 48.1411 18.8145 47.7477 18.8145 47.3374V34.4468H16.2364C15.8261 34.4468 15.4327 34.2838 15.1426 33.9937C14.8525 33.7036 14.6895 33.3102 14.6895 32.8999C14.6895 32.4896 14.8525 32.0962 15.1426 31.8061C15.4327 31.516 15.8261 31.353 16.2364 31.353H24.4864C24.8966 31.353 25.2901 31.516 25.5802 31.8061C25.8703 32.0962 26.0333 32.4896 26.0333 32.8999ZM10.0489 31.353C9.63863 31.353 9.24518 31.516 8.95508 31.8061C8.66499 32.0962 8.50201 32.4896 8.50201 32.8999V38.5718H3.34576V32.8999C3.34576 32.4896 3.18279 32.0962 2.8927 31.8061C2.6026 31.516 2.20915 31.353 1.79889 31.353C1.38863 31.353 0.995179 31.516 0.705083 31.8061C0.414988 32.0962 0.252014 32.4896 0.252014 32.8999V47.3374C0.252014 47.7477 0.414988 48.1411 0.705083 48.4312C0.995179 48.7213 1.38863 48.8843 1.79889 48.8843C2.20915 48.8843 2.6026 48.7213 2.8927 48.4312C3.18279 48.1411 3.34576 47.7477 3.34576 47.3374V41.6655H8.50201V47.3374C8.50201 47.7477 8.66499 48.1411 8.95508 48.4312C9.24518 48.7213 9.63863 48.8843 10.0489 48.8843C10.4591 48.8843 10.8526 48.7213 11.1427 48.4312C11.4328 48.1411 11.5958 47.7477 11.5958 47.3374V32.8999C11.5958 32.4896 11.4328 32.0962 11.1427 31.8061C10.8526 31.516 10.4591 31.353 10.0489 31.353ZM55.4239 45.7905H51.8145V32.8999C51.8145 32.4896 51.6515 32.0962 51.3614 31.8061C51.0714 31.516 50.6779 31.353 50.2676 31.353C49.8574 31.353 49.4639 31.516 49.1738 31.8061C48.8837 32.0962 48.7208 32.4896 48.7208 32.8999V47.3374C48.7208 47.7477 48.8837 48.1411 49.1738 48.4312C49.4639 48.7213 49.8574 48.8843 50.2676 48.8843H55.4239C55.8341 48.8843 56.2276 48.7213 56.5177 48.4312C56.8078 48.1411 56.9708 47.7477 56.9708 47.3374C56.9708 46.9271 56.8078 46.5337 56.5177 46.2436C56.2276 45.9535 55.8341 45.7905 55.4239 45.7905ZM43.4614 31.4097C43.1354 31.3191 42.7887 31.3379 42.4743 31.4631C42.16 31.5884 41.8955 31.8132 41.7212 32.1033L36.8614 40.2063L32.0016 32.1033C31.8278 31.8125 31.5633 31.5868 31.2489 31.4609C30.9344 31.335 30.5872 31.3158 30.2608 31.4063C29.9343 31.4967 29.6466 31.6919 29.4418 31.9617C29.2369 32.2315 29.1264 32.5611 29.127 32.8999V47.3374C29.127 47.7477 29.29 48.1411 29.5801 48.4312C29.8702 48.7213 30.2636 48.8843 30.6739 48.8843C31.0841 48.8843 31.4776 48.7213 31.7677 48.4312C32.0578 48.1411 32.2208 47.7477 32.2208 47.3374V38.4841L35.5337 44.009C35.6709 44.2387 35.8654 44.4288 36.0981 44.5608C36.3309 44.6928 36.5938 44.7622 36.8614 44.7622C37.1289 44.7622 37.3919 44.6928 37.6246 44.5608C37.8573 44.4288 38.0518 44.2387 38.1891 44.009L41.502 38.4841V47.3374C41.502 47.7477 41.665 48.1411 41.9551 48.4312C42.2452 48.7213 42.6386 48.8843 43.0489 48.8843C43.4591 48.8843 43.8526 48.7213 44.1427 48.4312C44.4328 48.1411 44.5958 47.7477 44.5958 47.3374V32.8999C44.5956 32.5617 44.4846 32.2328 44.2797 31.9636C44.0748 31.6945 43.7874 31.4999 43.4614 31.4097ZM48.7208 22.5874C48.7208 22.9977 48.5578 23.3911 48.2677 23.6812C47.9776 23.9713 47.5841 24.1343 47.1739 24.1343C46.7636 24.1343 46.3702 23.9713 46.0801 23.6812C45.79 23.3911 45.627 22.9977 45.627 22.5874V17.9468H32.7364C32.3261 17.9468 31.9327 17.7838 31.6426 17.4937C31.3525 17.2036 31.1895 16.8102 31.1895 16.3999V3.50928H7.98639C7.84964 3.50928 7.71849 3.5636 7.62179 3.6603C7.52509 3.757 7.47076 3.88815 7.47076 4.0249V22.5874C7.47076 22.9977 7.30779 23.3911 7.01769 23.6812C6.7276 23.9713 6.33415 24.1343 5.92389 24.1343C5.51363 24.1343 5.12018 23.9713 4.83008 23.6812C4.53999 23.3911 4.37701 22.9977 4.37701 22.5874V4.0249C4.37701 3.06764 4.75729 2.14958 5.43418 1.47269C6.11106 0.7958 7.02912 0.415528 7.98639 0.415528H32.7364C32.9399 0.415368 33.1414 0.455365 33.3295 0.533228C33.5175 0.611091 33.6883 0.725288 33.8321 0.869278L48.2696 15.3068C48.5588 15.597 48.7211 15.9902 48.7208 16.3999V22.5874ZM43.4408 14.853L34.2833 5.69553V14.853H43.4408Z" fill="white"/>
</svg>
