<svg width="49" height="53" viewBox="0 0 49 53" fill="none" xmlns="http://www.w3.org/2000/svg">
<path d="M9.95557 7.20508C9.95557 5.48117 10.6404 3.82787 11.8594 2.60888C13.0784 1.3899 14.7317 0.705078 16.4556 0.705078H31.3601C32.6526 0.706216 33.8917 1.22058 34.8051 2.13508L47.5288 14.8556C48.4421 15.7695 48.9553 17.0086 48.9556 18.3006V46.2051C48.9556 47.929 48.2707 49.5823 47.0518 50.8013C45.8328 52.0203 44.1795 52.7051 42.4556 52.7051H24.5806C25.2923 51.7626 25.7993 50.6576 26.0431 49.4551H42.4556C43.3175 49.4551 44.1442 49.1127 44.7537 48.5032C45.3632 47.8937 45.7056 47.067 45.7056 46.2051V20.2051H34.3306C33.0376 20.2051 31.7977 19.6915 30.8834 18.7772C29.9692 17.863 29.4556 16.623 29.4556 15.3301V3.95508H16.4556C15.5936 3.95508 14.767 4.29749 14.1575 4.90698C13.548 5.51647 13.2056 6.34312 13.2056 7.20508V31.5801C12.9423 31.7783 12.6856 31.9928 12.4516 32.2236C11.8661 31.2988 10.9872 30.5972 9.95557 30.2313V7.20508ZM34.3306 16.9551H45.0328L32.7056 4.62783V15.3301C32.7056 15.7611 32.8768 16.1744 33.1815 16.4791C33.4863 16.7839 33.8996 16.9551 34.3306 16.9551ZM8.33057 33.2051C7.89959 33.2051 7.48626 33.3763 7.18152 33.681C6.87677 33.9858 6.70557 34.3991 6.70557 34.8301V47.8301C6.70557 48.2611 6.53436 48.6744 6.22961 48.9791C5.92487 49.2839 5.51154 49.4551 5.08057 49.4551C4.64959 49.4551 4.23626 49.2839 3.93152 48.9791C3.62677 48.6744 3.45557 48.2611 3.45557 47.8301V46.2051C3.45557 45.7741 3.28436 45.3608 2.97961 45.056C2.67487 44.7513 2.26154 44.5801 1.83057 44.5801C1.39959 44.5801 0.986264 44.7513 0.681518 45.056C0.376771 45.3608 0.205566 45.7741 0.205566 46.2051V47.8301C0.205566 49.123 0.719181 50.363 1.63342 51.2772C2.54766 52.1915 3.78764 52.7051 5.08057 52.7051C6.3735 52.7051 7.61347 52.1915 8.52771 51.2772C9.44195 50.363 9.95557 49.123 9.95557 47.8301V34.8301C9.95557 34.3991 9.78436 33.9858 9.47961 33.681C9.17487 33.3763 8.76154 33.2051 8.33057 33.2051ZM13.2056 38.0801C13.2056 36.7871 13.7192 35.5472 14.6334 34.6329C15.5477 33.7187 16.7876 33.2051 18.0806 33.2051C19.3735 33.2051 20.6135 33.7187 21.5277 34.6329C22.442 35.5472 22.9556 36.7871 22.9556 38.0801C22.9556 38.5111 22.7844 38.9244 22.4796 39.2291C22.1749 39.5339 21.7615 39.7051 21.3306 39.7051C20.8996 39.7051 20.4863 39.5339 20.1815 39.2291C19.8768 38.9244 19.7056 38.5111 19.7056 38.0801C19.7056 37.6491 19.5344 37.2358 19.2296 36.931C18.9249 36.6263 18.5115 36.4551 18.0806 36.4551C17.6496 36.4551 17.2363 36.6263 16.9315 36.931C16.6268 37.2358 16.4556 37.6491 16.4556 38.0801V39.3216C16.4556 39.6231 16.5395 39.9187 16.6979 40.1753C16.8563 40.4318 17.083 40.6392 17.3526 40.7743L20.2613 42.2271C21.0711 42.6321 21.7522 43.2547 22.228 44.0251C22.7039 44.7954 22.9558 45.6831 22.9556 46.5886V47.8301C22.9556 49.123 22.442 50.363 21.5277 51.2772C20.6135 52.1915 19.3735 52.7051 18.0806 52.7051C16.7876 52.7051 15.5477 52.1915 14.6334 51.2772C13.7192 50.363 13.2056 49.123 13.2056 47.8301C13.2056 47.3991 13.3768 46.9858 13.6815 46.681C13.9863 46.3763 14.3996 46.2051 14.8306 46.2051C15.2615 46.2051 15.6749 46.3763 15.9796 46.681C16.2844 46.9858 16.4556 47.3991 16.4556 47.8301C16.4556 48.2611 16.6268 48.6744 16.9315 48.9791C17.2363 49.2839 17.6496 49.4551 18.0806 49.4551C18.5115 49.4551 18.9249 49.2839 19.2296 48.9791C19.5344 48.6744 19.7056 48.2611 19.7056 47.8301V46.5886C19.7056 46.287 19.6217 45.9915 19.4632 45.7349C19.3048 45.4783 19.0781 45.2709 18.8086 45.1358L15.8998 43.6831C15.09 43.278 14.409 42.6554 13.9331 41.8851C13.4572 41.1147 13.2053 40.2271 13.2056 39.3216V38.0801Z" fill="white"/>
</svg>
