<svg width="49" height="45" viewBox="0 0 49 45" fill="none" xmlns="http://www.w3.org/2000/svg">
<path d="M24.4556 18.4681C26.7746 18.4681 28.6659 20.3944 28.6659 22.8022C28.6659 25.0954 26.7746 27.0446 24.4556 27.0446C22.1366 27.0446 20.2453 25.0954 20.2453 22.8022C20.2453 20.3944 22.1366 18.4681 24.4556 18.4681ZM14.0312 41.1477C15.4496 42.0192 18.5567 40.6891 22.1366 37.2493C20.9658 35.8963 19.8175 34.4287 18.7368 32.8923C16.9224 32.7154 15.1187 32.4398 13.3332 32.0667C12.1849 36.9741 12.6127 40.3451 14.0312 41.1477ZM15.6297 27.9848L14.9768 26.8153C14.7291 27.4803 14.4815 28.1454 14.3239 28.7875C14.9318 28.925 15.6072 29.0397 16.3052 29.1544L15.6297 27.9848ZM30.3545 26.242L32.1782 22.8022L30.3545 19.3624C29.6791 18.147 28.9586 17.0692 28.3057 15.9914C27.0898 15.9227 25.8065 15.9227 24.4556 15.9227C23.1047 15.9227 21.8213 15.9227 20.6055 15.9914C19.9526 17.0692 19.2321 18.147 18.5567 19.3624L16.733 22.8022L18.5567 26.242C19.2321 27.4574 19.9526 28.5352 20.6055 29.613C21.8213 29.6818 23.1047 29.6818 24.4556 29.6818C25.8065 29.6818 27.0898 29.6818 28.3057 29.613C28.9586 28.5352 29.6791 27.4574 30.3545 26.242ZM24.4556 10.8318C24.0278 11.3363 23.5775 11.8637 23.1272 12.4829H25.784C25.3337 11.8637 24.8834 11.3363 24.4556 10.8318ZM24.4556 34.7727C24.8834 34.2682 25.3337 33.7407 25.784 33.1216H23.1272C23.5775 33.7407 24.0278 34.2682 24.4556 34.7727ZM34.8575 4.4567C33.4616 3.58529 30.3545 4.91534 26.7746 8.35512C27.9454 9.70811 29.0937 11.1757 30.1744 12.7122C32.0206 12.8956 33.8443 13.1708 35.578 13.5377C36.7263 8.63031 36.2985 5.25932 34.8575 4.4567ZM33.2815 17.6196L33.9344 18.7891C34.1821 18.1241 34.4297 17.4591 34.5873 16.817C33.9794 16.6794 33.304 16.5647 32.606 16.4501L33.2815 17.6196ZM36.5461 1.45262C39.8558 3.3789 40.2161 8.44685 38.8201 14.3633C44.5389 16.0832 48.6592 18.9267 48.6592 22.8022C48.6592 26.6777 44.5389 29.5213 38.8201 31.2412C40.2161 37.1576 39.8558 42.2255 36.5461 44.1518C33.2589 46.0781 28.7785 43.8766 24.4556 39.6801C20.1327 43.8766 15.6522 46.0781 12.3425 44.1518C9.05536 42.2255 8.69512 37.1576 10.0911 31.2412C4.37225 29.5213 0.252014 26.6777 0.252014 22.8022C0.252014 18.9267 4.37225 16.0832 10.0911 14.3633C8.69512 8.44685 9.05536 3.3789 12.3425 1.45262C15.6522 -0.47366 20.1327 1.7278 24.4556 5.92434C28.7785 1.7278 33.2589 -0.47366 36.5461 1.45262ZM35.8932 22.8022C36.6587 24.5221 37.3342 26.242 37.897 27.9848C42.6252 26.5401 45.2819 24.4763 45.2819 22.8022C45.2819 21.1282 42.6252 19.0643 37.897 17.6196C37.3342 19.3624 36.6587 21.0823 35.8932 22.8022ZM13.018 22.8022C12.2525 21.0823 11.577 19.3624 11.0142 17.6196C6.28602 19.0643 3.62926 21.1282 3.62926 22.8022C3.62926 24.4763 6.28602 26.5401 11.0142 27.9848C11.577 26.242 12.2525 24.5221 13.018 22.8022ZM33.2815 27.9848L32.606 29.1544C33.304 29.0397 33.9794 28.925 34.5873 28.7875C34.4297 28.1454 34.1821 27.4803 33.9344 26.8153L33.2815 27.9848ZM26.7746 37.2493C30.3545 40.6891 33.4616 42.0192 34.8575 41.1477C36.2985 40.3451 36.7263 36.9741 35.578 32.0667C33.8443 32.4336 32.0206 32.7088 30.1744 32.8923C29.0937 34.4287 27.9454 35.8963 26.7746 37.2493ZM15.6297 17.6196L16.3052 16.4501C15.6072 16.5647 14.9318 16.6794 14.3239 16.817C14.4815 17.4591 14.7291 18.1241 14.9768 18.7891L15.6297 17.6196ZM22.1366 8.35512C18.5567 4.91534 15.4496 3.58529 14.0312 4.4567C12.6127 5.25932 12.1849 8.63031 13.3332 13.5377C15.1187 13.1646 16.9224 12.889 18.7368 12.7122C19.8175 11.1757 20.9658 9.70811 22.1366 8.35512Z" fill="white"/>
</svg>
