<svg width="65" height="51" viewBox="0 0 65 51" fill="none" xmlns="http://www.w3.org/2000/svg">
<path d="M20.0279 41.3569C20.0279 44.5793 22.1717 47.2013 24.8097 47.2013C25.3942 47.19 25.9702 47.0598 26.5028 46.8186C27.0353 46.5775 27.5132 46.2304 27.9073 45.7986C28.1997 45.4932 28.6014 45.3164 29.0241 45.3072C29.4469 45.298 29.8559 45.4571 30.1614 45.7495C30.4668 46.0419 30.6435 46.4436 30.6528 46.8664C30.662 47.2891 30.5029 47.6982 30.2105 48.0036C29.5199 48.7477 28.6847 49.343 27.7561 49.7532C26.8274 50.1634 25.8249 50.3798 24.8097 50.3892C20.4157 50.3892 16.84 46.3379 16.84 41.3569C16.84 36.3758 20.4157 32.3246 24.8097 32.3246C25.8253 32.3346 26.828 32.5518 27.7567 32.9629C28.6854 33.374 29.5203 33.9704 30.2105 34.7155C30.3553 34.8667 30.4689 35.045 30.5447 35.2401C30.6206 35.4352 30.6573 35.6434 30.6528 35.8527C30.6482 36.062 30.6025 36.2684 30.5181 36.46C30.4338 36.6516 30.3126 36.8248 30.1614 36.9695C30.0101 37.1143 29.8319 37.2279 29.6367 37.3038C29.4416 37.3797 29.2334 37.4164 29.0241 37.4118C28.8148 37.4072 28.6085 37.3615 28.4168 37.2772C28.2252 37.1929 28.052 37.0716 27.9073 36.9204C27.5137 36.4876 27.036 36.1396 26.5034 35.8975C25.9709 35.6554 25.3946 35.5244 24.8097 35.5124C22.1717 35.5124 20.0279 38.1318 20.0279 41.3569ZM41.546 39.5584C38.6637 38.7269 37.9863 38.3124 38.0925 37.457C38.1072 37.1883 38.1839 36.9266 38.3166 36.6924C38.4494 36.4583 38.6345 36.2581 38.8576 36.1075C40.3426 35.1007 43.5491 35.624 44.5533 35.8843C44.7574 35.9432 44.9712 35.9607 45.1821 35.9358C45.393 35.9109 45.5969 35.8441 45.7816 35.7393C45.9664 35.6345 46.1283 35.4939 46.258 35.3256C46.3876 35.1573 46.4823 34.9648 46.5364 34.7595C46.5906 34.5541 46.6032 34.3399 46.5735 34.1296C46.5437 33.9193 46.4722 33.7171 46.3632 33.5348C46.2542 33.3525 46.1098 33.1938 45.9386 33.0681C45.7674 32.9424 45.5728 32.8522 45.3662 32.8027C44.8349 32.6619 40.0292 31.4744 37.0777 33.4616C36.4781 33.8673 35.9748 34.3997 35.6035 35.0212C35.2321 35.6428 35.0017 36.3382 34.9286 37.0585C34.453 40.8282 38.1881 41.9068 40.6588 42.6214C43.8785 43.5512 44.5852 44.0373 44.4337 45.2142C44.4193 45.4961 44.3398 45.7708 44.2015 46.0169C44.0633 46.263 43.87 46.4738 43.6368 46.6328C42.1491 47.6237 38.9931 47.0685 38.0102 46.7975C37.8034 46.721 37.5831 46.6881 37.363 46.7011C37.143 46.7141 36.928 46.7725 36.7317 46.8728C36.5354 46.9731 36.362 47.113 36.2225 47.2837C36.0831 47.4543 35.9805 47.6521 35.9213 47.8644C35.8621 48.0768 35.8477 48.2991 35.8788 48.5173C35.9099 48.7355 35.986 48.9449 36.1021 49.1323C36.2183 49.3196 36.372 49.4808 36.5537 49.6057C36.7353 49.7306 36.9409 49.8165 37.1574 49.8579C38.4292 50.1971 39.7384 50.3756 41.0546 50.3892C42.513 50.3892 44.1229 50.1368 45.4007 49.2894C46.0165 48.8785 46.5338 48.3365 46.9154 47.7023C47.2971 47.068 47.5337 46.3571 47.6083 45.6206C48.1423 41.4605 44.1814 40.3155 41.546 39.5557V39.5584ZM58.5481 39.5584C55.6657 38.7269 54.9856 38.3124 55.0945 37.457C55.1098 37.1884 55.1867 36.9269 55.3194 36.6929C55.4521 36.4588 55.637 36.2585 55.8596 36.1075C57.3473 35.1007 60.5484 35.6213 61.5553 35.8843C61.9623 35.9876 62.3936 35.9261 62.7555 35.7132C63.1175 35.5002 63.3807 35.1531 63.4882 34.7472C63.5956 34.3412 63.5385 33.9093 63.3293 33.5452C63.1201 33.1811 62.7757 32.9143 62.3708 32.8027C61.8395 32.6593 57.0312 31.4744 54.0797 33.4616C53.4808 33.8678 52.9783 34.4005 52.6074 35.0219C52.2365 35.6434 52.0064 36.3386 51.9332 37.0585C51.455 40.8282 55.1901 41.9068 57.6634 42.6214C60.8832 43.5512 61.5872 44.0373 61.4357 45.2142C61.4221 45.4963 61.343 45.7713 61.2046 46.0175C61.0663 46.2638 60.8726 46.4744 60.6388 46.6328C59.1484 47.6237 55.9951 47.0685 55.0095 46.7975C54.6167 46.7224 54.21 46.7977 53.8702 47.0084C53.5303 47.2192 53.2821 47.55 53.1747 47.9352C53.0674 48.3205 53.1088 48.732 53.2907 49.0881C53.4726 49.4443 53.7817 49.719 54.1568 49.8579C55.4295 50.197 56.7396 50.3755 58.0566 50.3892C59.5151 50.3892 61.1223 50.1368 62.4027 49.2894C63.0185 48.8785 63.5358 48.3365 63.9174 47.7023C64.2991 47.068 64.5357 46.3571 64.6103 45.6206C65.1443 41.4605 61.1807 40.3155 58.5481 39.5557V39.5584ZM42.7573 18.5104H29.4744C29.0517 18.5104 28.6463 18.3425 28.3473 18.0436C28.0484 17.7446 27.8805 17.3392 27.8805 16.9165V3.63368H3.97122C3.83031 3.63368 3.69517 3.68965 3.59553 3.78929C3.49589 3.88893 3.43991 4.02408 3.43991 4.16499V23.2922C3.43991 23.715 3.27198 24.1204 2.97305 24.4193C2.67413 24.7182 2.26871 24.8862 1.84596 24.8862C1.42322 24.8862 1.01779 24.7182 0.71887 24.4193C0.419947 24.1204 0.252014 23.715 0.252014 23.2922V4.16499C0.252014 3.1786 0.643855 2.23261 1.34134 1.53513C2.03883 0.837643 2.98483 0.445801 3.97122 0.445801H29.4744C29.897 0.446173 30.3022 0.614349 30.6008 0.913356L45.4777 15.7901C45.7767 16.0887 45.9449 16.4939 45.9452 16.9165V23.2922C45.9452 23.715 45.7773 24.1204 45.4784 24.4193C45.1794 24.7182 44.774 24.8862 44.3513 24.8862C43.9285 24.8862 43.5231 24.7182 43.2242 24.4193C42.9253 24.1204 42.7573 23.715 42.7573 23.2922V18.5104ZM40.4992 15.3226L31.0684 5.88644V15.3226H40.4992Z" fill="white"/>
<path d="M3.74634 37.4571C3.64008 38.3125 4.31748 38.7269 7.19987 39.5584V39.5557C9.8352 40.3155 13.7961 41.4605 13.2621 45.6207C13.1875 46.3572 12.9509 47.068 12.5693 47.7023C12.1876 48.3366 11.6703 48.8785 11.0545 49.2894C9.77673 50.1368 8.16687 50.3892 6.70841 50.3892C5.39224 50.3756 4.083 50.1971 2.81123 49.8579C2.59472 49.8165 2.38915 49.7306 2.20751 49.6057C2.02587 49.4809 1.87211 49.3196 1.75594 49.1323C1.63978 48.945 1.56373 48.7356 1.53261 48.5173C1.50149 48.2991 1.51597 48.0768 1.57514 47.8645C1.63431 47.6521 1.73688 47.4544 1.87637 47.2837C2.01586 47.113 2.18923 46.9731 2.38554 46.8728C2.58185 46.7726 2.79681 46.7141 3.01687 46.7011C3.23692 46.6882 3.45727 46.721 3.66399 46.7975C4.64692 47.0685 7.8029 47.6237 9.29058 46.6328C9.52382 46.4738 9.71711 46.263 9.85537 46.017C9.99363 45.7709 10.0731 45.4961 10.0876 45.2142C10.239 44.0374 9.53235 43.5512 6.31258 42.6214L6.30914 42.6204C3.8385 41.9058 0.107064 40.8265 0.582372 37.0586C0.65553 36.3383 0.885918 35.6428 1.25727 35.0213C1.62863 34.3997 2.13189 33.8673 2.73153 33.4616C5.68299 31.4745 10.4887 32.662 11.02 32.8028C11.2266 32.8522 11.4212 32.9424 11.5924 33.0681C11.7636 33.1938 11.908 33.3525 12.017 33.5348C12.126 33.7171 12.1975 33.9193 12.2273 34.1297C12.257 34.34 12.2444 34.5541 12.1903 34.7595C12.1361 34.9649 12.0414 35.1574 11.9118 35.3256C11.7822 35.4939 11.6202 35.6346 11.4355 35.7394C11.2507 35.8442 11.0469 35.911 10.8359 35.9359C10.625 35.9608 10.4112 35.9433 10.2071 35.8844C9.20291 35.624 5.99646 35.1007 4.51143 36.1075C4.28835 36.2581 4.10318 36.4583 3.97044 36.6925C3.8377 36.9266 3.76099 37.1883 3.74634 37.4571Z" fill="white"/>
</svg>
